# xmcd
#
# Track frame offsets:
#	150
#	15901
#	31222
#	49911
#	67012
#	86596
#	100996
#	116893
#	132419
#	146119
#	165506
#	178694
#
# Disc length: 2581 seconds
#
# Revision: 0
# Processed by: cddbd v1.5.2PL0 Copyright (c) Steve Scherf et al.
# Submitted via: dBpowerAMP V4.0
#
DISCID=a50a130c
DTITLE=Pedro Henrique e Cristiano - Pra eternidade
DYEAR=2009
DGENRE=Country
TTITLE0=Fui mais um
TTITLE1=Pra la de Bagdá
TTITLE2=Dia e noite
TTITLE3=Me leva pra casa
TTITLE4=Fala
TTITLE5=Me adiciona
TTITLE6=Pra eternidade
TTITLE7=Doce amada - vida e saudade
TTITLE8=Hoje eu vou me acabar
TTITLE9=Onde vou te encontrar
TTITLE10=Meu santo é forte
TTITLE11=Namorando a lua
EXTD=Pra eternidade
EXTT0=
EXTT1=
EXTT2=
EXTT3=
EXTT4=
EXTT5=
EXTT6=
EXTT7=
EXTT8=
EXTT9=
EXTT10=
EXTT11=
PLAYORDER=
